<svg xmlns="http://www.w3.org/2000/svg" width="175" height="52" viewBox="0 0 175 52" fill="none">
  <g clip-path="url(#clip0_221_4611)">
    <path d="M161.064 0.000169H13.9438C13.4075 0.000169 12.8777 0.000169 12.3428 0.002769C11.8951 0.005369 11.4509 0.012922 10.9989 0.019279C10.0169 0.0295513 9.03723 0.106348 8.06836 0.249002C7.10085 0.394761 6.16365 0.669559 5.28846 1.0641C4.41434 1.46198 3.61562 1.97899 2.9213 2.59636C2.22333 3.212 1.64152 3.92359 1.19824 4.70378C0.753735 5.48241 0.445515 6.31679 0.284223 7.17809C0.121397 8.03831 0.0337797 8.90845 0.0221558 9.78069C0.00858445 10.1793 0.00715127 10.5792 0 10.9778V41.0263C0.00715127 41.43 0.00858445 41.821 0.0221558 42.2248C0.0337833 43.097 0.121401 43.9671 0.284223 44.8273C0.445069 45.6891 0.753308 46.524 1.19824 47.3029C1.64132 48.0805 2.22321 48.7893 2.9213 49.4015C3.61299 50.0216 4.41222 50.5389 5.28846 50.9338C6.16365 51.3294 7.10074 51.6058 8.06836 51.7538C9.03739 51.8953 10.017 51.9722 10.9989 51.9837C11.4509 51.9925 11.8951 51.9976 12.3428 51.9976C12.8777 52.0002 13.4075 52.0002 13.9438 52.0002H161.064C161.59 52.0002 162.124 52.0002 162.649 51.9976C163.095 51.9976 163.552 51.9925 163.998 51.9837C164.978 51.9728 165.955 51.8959 166.922 51.7538C167.893 51.6048 168.834 51.3284 169.713 50.9338C170.588 50.5387 171.387 50.0214 172.078 49.4015C172.774 48.7869 173.357 48.0787 173.806 47.3029C174.248 46.5234 174.553 45.6886 174.711 44.8273C174.875 43.967 174.965 43.0971 174.983 42.2248C174.989 41.821 174.989 41.43 174.989 41.0263C175 40.5541 175 40.0844 175 39.6044V12.3971C175 11.9211 175 11.4488 174.989 10.9778C174.989 10.5792 174.989 10.1793 174.983 9.78064C174.965 8.90832 174.875 8.03837 174.711 7.17804C174.553 6.31723 174.247 5.48292 173.806 4.70372C172.903 3.13992 171.472 1.867 169.713 1.06398C168.834 0.670407 167.893 0.395682 166.922 0.248885C165.956 0.105603 164.978 0.0287791 163.998 0.019097C163.552 0.012753 163.095 0.005135 162.649 0.0026C162.124 0 161.59 0 161.064 0V0.000169Z" fill="#CBD2DD"/>
    <path d="M12.2252 50.8663C11.7788 50.8663 11.3433 50.8612 10.9004 50.8523C9.98305 50.8417 9.06781 50.7708 8.16223 50.6403C7.31782 50.5112 6.49981 50.2711 5.73518 49.9279C4.97757 49.5875 4.28657 49.1412 3.68864 48.606C3.08207 48.0771 2.57706 47.4638 2.19364 46.7902C1.806 46.1122 1.53773 45.3855 1.39817 44.6354C1.24747 43.8293 1.16593 43.0143 1.15426 42.1973C1.14497 41.9231 1.13281 41.0101 1.13281 41.0101V10.9731C1.13281 10.9731 1.14576 10.074 1.15433 9.80991C1.1655 8.99423 1.24657 8.18048 1.39683 7.37571C1.53664 6.62353 1.80512 5.89473 2.19297 5.21453C2.57498 4.5414 3.07718 3.92756 3.6801 3.39682C4.28235 2.86103 4.97556 2.41241 5.73446 2.06733C6.49733 1.72521 7.31379 1.48679 8.1565 1.36006C9.06506 1.22817 9.98347 1.15686 10.904 1.14674L12.2259 1.13086H162.777L164.115 1.14737C165.027 1.15699 165.937 1.22766 166.837 1.35878C167.688 1.4871 168.513 1.72718 169.285 2.07114C170.805 2.76658 172.042 3.86684 172.823 5.21771C173.204 5.89321 173.469 6.61607 173.607 7.36175C173.759 8.17312 173.844 8.99326 173.861 9.81564C173.866 10.1839 173.866 10.5794 173.866 10.9731C173.877 11.4607 173.877 11.9248 173.877 12.3927V39.6056C173.877 40.078 173.877 40.539 173.866 41.0037C173.866 41.4265 173.866 41.8139 173.86 42.2126C173.843 43.0203 173.759 43.8258 173.61 44.6226C173.473 45.3782 173.206 46.1105 172.819 46.7941C172.432 47.4604 171.93 48.0684 171.331 48.5959C170.732 49.1339 170.04 49.5828 169.281 49.9254C168.511 50.2712 167.687 50.5122 166.837 50.6403C165.932 50.7715 165.016 50.8424 164.099 50.8523C163.67 50.8612 163.22 50.8663 162.784 50.8663L161.196 50.8689L12.2252 50.8663Z" fill="#0E0D17"/>
    <path d="M42.5137 26.392C42.5277 25.3069 42.8151 24.243 43.3492 23.2993C43.8833 22.3556 44.6467 21.5626 45.5685 20.9943C44.983 20.1556 44.2104 19.4654 43.3123 18.9785C42.4142 18.4915 41.4153 18.2213 40.3948 18.1893C38.218 17.9602 36.1077 19.4956 34.9985 19.4956C33.8677 19.4956 32.1599 18.2121 30.3208 18.25C29.1312 18.2886 27.9719 18.6355 26.9557 19.257C25.9396 19.8784 25.1013 20.7533 24.5225 21.7963C22.0155 26.1492 23.8855 32.5466 26.2871 36.0652C27.4886 37.7881 28.8928 39.7127 30.7303 39.6445C32.5283 39.5697 33.1999 38.4946 35.3702 38.4946C37.5205 38.4946 38.1505 39.6445 40.0252 39.6011C41.9546 39.5696 43.1702 37.8704 44.3296 36.1312C45.1929 34.9035 45.8572 33.5467 46.2979 32.1109C45.177 31.6355 44.2205 30.8396 43.5475 29.8226C42.8746 28.8057 42.515 27.6125 42.5137 26.392Z" fill="white"/>
    <path d="M38.9741 15.8757C40.0261 14.6092 40.5444 12.9814 40.4189 11.3379C38.8117 11.5072 37.3271 12.2775 36.2609 13.4954C35.7396 14.0903 35.3403 14.7825 35.086 15.5323C34.8316 16.2821 34.727 17.0748 34.7783 17.8652C35.5822 17.8735 36.3775 17.6988 37.1043 17.3541C37.831 17.0095 38.4704 16.504 38.9741 15.8757Z" fill="white"/>
    <path d="M65.2435 35.282H59.1076L57.6341 39.6454H55.0352L60.847 23.502H63.5472L69.359 39.6454H66.7157L65.2435 35.282ZM59.7431 33.2685H64.6068L62.2091 26.187H62.142L59.7431 33.2685Z" fill="white"/>
    <path d="M81.9105 33.7609C81.9105 37.4184 79.9585 39.7683 77.0127 39.7683C76.2665 39.8074 75.5243 39.6351 74.8713 39.2709C74.2182 38.9067 73.6806 38.3654 73.32 37.7091H73.2643V43.5388H70.8552V27.8753H73.1871V29.8329H73.2314C73.6085 29.1797 74.1552 28.6413 74.8133 28.2749C75.4713 27.9085 76.2161 27.7278 76.9684 27.7522C79.947 27.7522 81.9105 30.1135 81.9105 33.7609ZM79.4344 33.7609C79.4344 31.378 78.2064 29.8114 76.3329 29.8114C74.4922 29.8114 73.2542 31.411 73.2542 33.7609C73.2542 36.1324 74.4922 37.7205 76.3329 37.7205C78.2064 37.7205 79.4344 36.1654 79.4344 33.7609Z" fill="white"/>
    <path d="M94.8287 33.7609C94.8287 37.4184 92.8767 39.7683 89.9309 39.7683C89.1847 39.8074 88.4425 39.635 87.7895 39.2709C87.1364 38.9067 86.5988 38.3654 86.2382 37.7091H86.1825V43.5388H83.7734V27.8753H86.1052V29.8329H86.1495C86.5267 29.1797 87.0734 28.6413 87.7314 28.2749C88.3895 27.9085 89.1343 27.7278 89.8865 27.7522C92.8653 27.7522 94.8287 30.1135 94.8287 33.7609ZM92.3526 33.7609C92.3526 31.378 91.1246 29.8113 89.2511 29.8113C87.4104 29.8113 86.1724 31.411 86.1724 33.7609C86.1724 36.1323 87.4104 37.7205 89.2511 37.7205C91.1246 37.7205 92.3526 36.1654 92.3526 33.7609H92.3526Z" fill="white"/>
    <path d="M103.364 35.147C103.543 36.7479 105.094 37.799 107.213 37.799C109.243 37.799 110.704 36.7479 110.704 35.3044C110.704 34.0514 109.823 33.3011 107.737 32.7869L105.651 32.2829C102.695 31.5669 101.323 30.1806 101.323 27.931C101.323 25.1456 103.743 23.2324 107.18 23.2324C110.581 23.2324 112.913 25.1456 112.992 27.931H110.56C110.414 26.3199 109.086 25.3475 107.146 25.3475C105.205 25.3475 103.877 26.3314 103.877 27.7634C103.877 28.9047 104.725 29.5763 106.8 30.0904L108.574 30.5271C111.876 31.3104 113.249 32.6409 113.249 35.0022C113.249 38.0224 110.85 39.914 107.034 39.914C103.464 39.914 101.054 38.0669 100.898 35.1469L103.364 35.147Z" fill="white"/>
    <path d="M118.447 25.0898V27.8752H120.679V29.7884H118.447V36.277C118.447 37.285 118.894 37.7547 119.875 37.7547C120.14 37.7501 120.405 37.7314 120.668 37.6988V39.6005C120.227 39.6832 119.778 39.7206 119.33 39.7123C116.953 39.7123 116.027 38.8172 116.027 36.5346V29.7884H114.32V27.8752H116.027V25.0898H118.447Z" fill="white"/>
    <path d="M121.973 33.7607C121.973 30.0575 124.147 27.7305 127.539 27.7305C130.942 27.7305 133.106 30.0575 133.106 33.7607C133.106 37.4741 130.953 39.791 127.539 39.791C124.126 39.791 121.973 37.4741 121.973 33.7607ZM130.652 33.7607C130.652 31.2204 129.491 29.7211 127.539 29.7211C125.587 29.7211 124.427 31.2318 124.427 33.7607C124.427 36.3112 125.587 37.7991 127.539 37.7991C129.491 37.7991 130.652 36.3112 130.652 33.7607H130.652Z" fill="white"/>
    <path d="M135.094 27.8752H137.391V29.8785H137.447C137.603 29.2528 137.968 28.6999 138.482 28.3127C138.996 27.9254 139.628 27.7274 140.27 27.752C140.548 27.7511 140.825 27.7813 141.095 27.8422V30.102C140.745 29.9946 140.379 29.9452 140.013 29.956C139.663 29.9417 139.314 30.0036 138.99 30.1374C138.666 30.2711 138.375 30.4736 138.137 30.7308C137.898 30.9881 137.718 31.294 137.609 31.6277C137.499 31.9614 137.463 32.3149 137.503 32.6639V39.645H135.094L135.094 27.8752Z" fill="white"/>
    <path d="M152.2 36.1881C151.876 38.3247 149.801 39.791 147.147 39.791C143.732 39.791 141.613 37.497 141.613 33.8166C141.613 30.1248 143.744 27.7305 147.045 27.7305C150.292 27.7305 152.334 29.9674 152.334 33.536V34.3638H144.045V34.5098C144.007 34.9429 144.061 35.3793 144.204 35.7899C144.347 36.2005 144.575 36.5759 144.873 36.8912C145.172 37.2065 145.534 37.4545 145.936 37.6187C146.337 37.7829 146.769 37.8595 147.202 37.8435C147.772 37.897 148.343 37.7648 148.831 37.4665C149.32 37.1683 149.699 36.7199 149.913 36.1881L152.2 36.1881ZM144.056 32.6753H149.924C149.946 32.2858 149.887 31.8961 149.751 31.5305C149.615 31.1649 149.406 30.8314 149.135 30.5509C148.865 30.2704 148.54 30.049 148.18 29.9005C147.821 29.752 147.434 29.6797 147.045 29.6881C146.653 29.6857 146.264 29.7613 145.901 29.9105C145.538 30.0597 145.208 30.2794 144.93 30.5572C144.652 30.8349 144.432 31.1651 144.282 31.5286C144.132 31.8921 144.055 32.2819 144.056 32.6753V32.6753Z" fill="white"/>
    <path d="M59.4384 11.3506C59.9435 11.3143 60.4503 11.3908 60.9223 11.5746C61.3943 11.7585 61.8197 12.0451 62.1678 12.4138C62.516 12.7825 62.7782 13.2242 62.9356 13.7068C63.093 14.1895 63.1416 14.7011 63.0779 15.2049C63.0779 17.683 61.7424 19.1075 59.4384 19.1075H56.6445V11.3506H59.4384ZM57.8459 18.0105H59.3042C59.6651 18.0321 60.0263 17.9728 60.3614 17.8368C60.6966 17.7008 60.9972 17.4916 61.2416 17.2243C61.4859 16.9571 61.6678 16.6386 61.7739 16.292C61.88 15.9454 61.9077 15.5794 61.855 15.2207C61.9039 14.8634 61.8734 14.4997 61.7656 14.1556C61.6579 13.8116 61.4756 13.4957 61.2318 13.2306C60.988 12.9655 60.6888 12.7577 60.3555 12.6222C60.0223 12.4867 59.6633 12.4268 59.3042 12.4468H57.8459V18.0105Z" fill="white"/>
    <path d="M64.4349 16.1779C64.3982 15.7932 64.4421 15.4051 64.5637 15.0384C64.6854 14.6717 64.8821 14.3346 65.1413 14.0486C65.4005 13.7626 65.7164 13.5341 66.0688 13.3778C66.4212 13.2214 66.8023 13.1406 67.1876 13.1406C67.573 13.1406 67.9541 13.2214 68.3065 13.3778C68.6589 13.5341 68.9748 13.7626 69.234 14.0486C69.4932 14.3346 69.6899 14.6717 69.8115 15.0384C69.9332 15.4051 69.9771 15.7932 69.9404 16.1779C69.9778 16.563 69.9344 16.9517 69.8131 17.319C69.6917 17.6862 69.4951 18.024 69.2359 18.3105C68.9766 18.5971 68.6605 18.8261 68.3077 18.9828C67.955 19.1395 67.5734 19.2204 67.1876 19.2204C66.8018 19.2204 66.4203 19.1395 66.0675 18.9828C65.7148 18.8261 65.3986 18.5971 65.1394 18.3105C64.8801 18.024 64.6835 17.6862 64.5622 17.319C64.4409 16.9517 64.3975 16.563 64.4349 16.1779ZM68.7555 16.1779C68.7555 14.909 68.1871 14.167 67.1895 14.167C66.1882 14.167 65.6249 14.909 65.6249 16.1779C65.6249 17.457 66.1882 18.1933 67.1895 18.1933C68.1871 18.1933 68.7555 17.4519 68.7555 16.1779H68.7555Z" fill="white"/>
    <path d="M77.26 19.1077H76.065L74.8585 14.7964H74.7674L73.566 19.1077H72.3824L70.7734 13.2539H71.9419L72.9875 17.7207H73.0736L74.2737 13.2539H75.3788L76.5789 17.7207H76.6701L77.7106 13.2539H78.8626L77.26 19.1077Z" fill="white"/>
    <path d="M80.2149 13.2535H81.3238V14.1835H81.4099C81.5559 13.8495 81.8022 13.5695 82.1144 13.3825C82.4267 13.1956 82.7893 13.111 83.1518 13.1405C83.4358 13.1191 83.721 13.1621 83.9862 13.2662C84.2514 13.3703 84.4899 13.5329 84.6839 13.742C84.8779 13.9511 85.0226 14.2013 85.1071 14.4741C85.1916 14.7469 85.2139 15.0352 85.1722 15.3178V19.1073H84.0202V15.6079C84.0202 14.6672 83.6126 14.1993 82.7606 14.1993C82.5678 14.1903 82.3753 14.2232 82.1963 14.2958C82.0173 14.3684 81.8561 14.4789 81.7238 14.6198C81.5914 14.7607 81.4909 14.9287 81.4293 15.1121C81.3677 15.2956 81.3464 15.4903 81.3668 15.6828V19.1073H80.2148L80.2149 13.2535Z" fill="white"/>
    <path d="M87.0078 10.9688H88.1598V19.1077H87.0078V10.9688Z" fill="white"/>
    <path d="M89.7591 16.178C89.7224 15.7933 89.7663 15.4051 89.888 15.0384C90.0097 14.6717 90.2064 14.3346 90.4656 14.0486C90.7248 13.7626 91.0408 13.5341 91.3932 13.3778C91.7456 13.2214 92.1268 13.1406 92.5121 13.1406C92.8975 13.1406 93.2786 13.2214 93.631 13.3778C93.9835 13.5341 94.2994 13.7626 94.5586 14.0486C94.8178 14.3346 95.0146 14.6717 95.1363 15.0384C95.2579 15.4051 95.3018 15.7933 95.2652 16.178C95.3025 16.5631 95.2591 16.9518 95.1378 17.3191C95.0164 17.6864 94.8198 18.0241 94.5605 18.3107C94.3012 18.5972 93.985 18.8262 93.6323 18.9828C93.2795 19.1395 92.898 19.2205 92.5121 19.2205C92.1263 19.2205 91.7448 19.1395 91.392 18.9828C91.0392 18.8262 90.723 18.5972 90.4638 18.3107C90.2045 18.0241 90.0079 17.6864 89.8865 17.3191C89.7651 16.9518 89.7217 16.5631 89.7591 16.178ZM94.0796 16.178C94.0796 14.9091 93.5112 14.1671 92.5137 14.1671C91.5124 14.1671 90.9491 14.9091 90.9491 16.178C90.9491 17.4571 91.5124 18.1934 92.5137 18.1934C93.5113 18.1934 94.0796 17.452 94.0796 16.178H94.0796Z" fill="white"/>
    <path d="M96.4805 17.4519C96.4805 16.3982 97.2628 15.7908 98.6515 15.7044L100.233 15.613V15.1078C100.233 14.4895 99.825 14.1404 99.0376 14.1404C98.3945 14.1404 97.9489 14.3771 97.8211 14.791H96.7058C96.8235 13.7855 97.7666 13.1406 99.0908 13.1406C100.554 13.1406 101.38 13.8712 101.38 15.1078V19.1074H100.271V18.2848H100.179C99.9945 18.5799 99.7347 18.8204 99.4267 18.9819C99.1186 19.1434 98.7734 19.22 98.4262 19.2039C98.1811 19.2294 97.9335 19.2032 97.6991 19.1269C97.4648 19.0506 97.2491 18.9259 97.0657 18.7608C96.8824 18.5958 96.7356 18.394 96.6348 18.1686C96.534 17.9431 96.4814 17.699 96.4805 17.4519ZM100.233 16.9517V16.4623L98.8072 16.5538C98.0034 16.6077 97.6388 16.8819 97.6388 17.398C97.6388 17.9248 98.0945 18.2314 98.7212 18.2314C98.9048 18.2501 99.0903 18.2315 99.2666 18.1768C99.4429 18.122 99.6064 18.0323 99.7474 17.9129C99.8884 17.7935 100.004 17.6469 100.087 17.4818C100.171 17.3167 100.22 17.1364 100.233 16.9517Z" fill="white"/>
    <path d="M102.895 16.1783C102.895 14.3286 103.843 13.1568 105.317 13.1568C105.682 13.1399 106.044 13.2276 106.361 13.4094C106.678 13.5913 106.937 13.8599 107.107 14.1838H107.194V10.9688H108.346V19.1077H107.242V18.1829H107.151C106.967 18.5046 106.699 18.7698 106.376 18.9499C106.053 19.1299 105.687 19.2178 105.318 19.2042C103.833 19.2042 102.895 18.0324 102.895 16.1783ZM104.085 16.1783C104.085 17.4199 104.668 18.167 105.644 18.167C106.615 18.167 107.215 17.4091 107.215 16.1834C107.215 14.9634 106.609 14.1946 105.644 14.1946C104.674 14.1946 104.084 14.9468 104.084 16.1783H104.085Z" fill="white"/>
    <path d="M113.111 16.1779C113.074 15.7932 113.118 15.4051 113.24 15.0384C113.361 14.6717 113.558 14.3346 113.817 14.0486C114.076 13.7626 114.392 13.5341 114.745 13.3778C115.097 13.2214 115.478 13.1406 115.863 13.1406C116.249 13.1406 116.63 13.2214 116.982 13.3778C117.335 13.5341 117.651 13.7626 117.91 14.0486C118.169 14.3346 118.366 14.6717 118.487 15.0384C118.609 15.4051 118.653 15.7932 118.616 16.1779C118.654 16.563 118.61 16.9517 118.489 17.319C118.368 17.6862 118.171 18.024 117.912 18.3105C117.652 18.5971 117.336 18.8261 116.984 18.9828C116.631 19.1395 116.249 19.2204 115.863 19.2204C115.478 19.2204 115.096 19.1395 114.743 18.9828C114.391 18.8261 114.074 18.5971 113.815 18.3105C113.556 18.024 113.359 17.6862 113.238 17.319C113.117 16.9517 113.073 16.563 113.111 16.1779ZM117.431 16.1779C117.431 14.909 116.863 14.167 115.865 14.167C114.864 14.167 114.301 14.909 114.301 16.1779C114.301 17.457 114.864 18.1933 115.865 18.1933C116.863 18.1933 117.431 17.4519 117.431 16.1779Z" fill="white"/>
    <path d="M120.16 13.2535H121.269V14.1835H121.355C121.501 13.8495 121.748 13.5695 122.06 13.3825C122.372 13.1956 122.735 13.111 123.097 13.1405C123.381 13.1191 123.666 13.1621 123.932 13.2662C124.197 13.3703 124.435 13.5329 124.629 13.742C124.823 13.9511 124.968 14.2013 125.052 14.4741C125.137 14.7469 125.159 15.0352 125.117 15.3178V19.1073H123.966V15.6079C123.966 14.6672 123.558 14.1993 122.706 14.1993C122.513 14.1903 122.321 14.2232 122.142 14.2958C121.963 14.3684 121.801 14.4789 121.669 14.6198C121.537 14.7607 121.436 14.9287 121.375 15.1121C121.313 15.2956 121.292 15.4903 121.312 15.6828V19.1073H120.16V13.2535Z" fill="white"/>
    <path d="M131.627 11.7969V13.281H132.891V14.2541H131.627V17.2641C131.627 17.8773 131.879 18.1458 132.452 18.1458C132.599 18.1453 132.746 18.1364 132.891 18.1191V19.0814C132.685 19.1186 132.475 19.1383 132.265 19.1405C130.984 19.1405 130.474 18.6885 130.474 17.5599V14.254H129.547V13.2809H130.474V11.7969H131.627Z" fill="white"/>
    <path d="M134.465 10.9688H135.607V14.1946H135.698C135.851 13.8575 136.104 13.5759 136.423 13.3883C136.741 13.2006 137.109 13.116 137.478 13.146C137.76 13.1306 138.043 13.1779 138.305 13.2845C138.567 13.3912 138.803 13.5546 138.995 13.763C139.187 13.9715 139.33 14.2198 139.416 14.4904C139.501 14.761 139.526 15.0471 139.488 15.3283V19.1077H138.335V15.6133C138.335 14.6783 137.901 14.2048 137.087 14.2048C136.889 14.1885 136.689 14.2158 136.503 14.2848C136.317 14.3537 136.148 14.4627 136.008 14.6041C135.868 14.7454 135.76 14.9157 135.693 15.1031C135.625 15.2905 135.599 15.4904 135.617 15.6889V19.1077H134.465L134.465 10.9688Z" fill="white"/>
    <path d="M146.208 17.5269C146.051 18.062 145.712 18.5247 145.25 18.8343C144.787 19.1439 144.231 19.2806 143.678 19.2205C143.294 19.2307 142.912 19.1568 142.558 19.004C142.205 18.8512 141.889 18.6232 141.633 18.3357C141.376 18.0482 141.185 17.7082 141.073 17.3392C140.96 16.9703 140.929 16.5812 140.982 16.199C140.931 15.8157 140.962 15.4258 141.074 15.0557C141.186 14.6856 141.377 14.344 141.632 14.054C141.887 13.764 142.201 13.5324 142.554 13.3748C142.906 13.2173 143.288 13.1374 143.673 13.1407C145.297 13.1407 146.277 14.2535 146.277 16.0917V16.4948H142.155V16.5596C142.137 16.7744 142.164 16.9906 142.234 17.1944C142.305 17.3982 142.416 17.585 142.563 17.7429C142.709 17.9008 142.887 18.0263 143.084 18.1113C143.282 18.1963 143.495 18.239 143.71 18.2366C143.986 18.2698 144.265 18.22 144.512 18.0936C144.759 17.9673 144.963 17.77 145.099 17.5269L146.208 17.5269ZM142.155 15.6404H145.104C145.118 15.444 145.092 15.2466 145.026 15.0611C144.959 14.8756 144.855 14.7059 144.72 14.5631C144.585 14.4203 144.421 14.3075 144.24 14.2318C144.058 14.1562 143.863 14.1195 143.667 14.124C143.468 14.1215 143.27 14.159 143.085 14.2343C142.901 14.3096 142.733 14.4213 142.592 14.5626C142.451 14.7039 142.34 14.8721 142.265 15.0572C142.19 15.2423 142.153 15.4406 142.155 15.6404H142.155Z" fill="white"/>
  </g>
  <defs>
    <clipPath id="clip0_221_4611">
      <rect width="175" height="52" fill="white"/>
    </clipPath>
  </defs>
</svg>