<svg xmlns="http://www.w3.org/2000/svg" width="72" height="88" viewBox="0 0 72 88" fill="none">
<path d="M20.6458 28.4375L51.2083 14.75C59.6235 12.3657 68.2473 15.9614 69.3918 20.75C69.5614 21.4598 69.5668 22.1958 69.3827 22.9425L69.2062 65.375C69.1969 67.837 68.8043 68.9495 67.1437 70.25L36.3937 85.8125V62.375L16.8941 71.5625C13.5191 73.625 2.47983 72.6875 2.48022 66.5L2.48453 22.25C2.54629 22.6495 2.66815 23.0449 2.84463 23.4324C3.68162 25.2701 5.7473 26.9297 8.45825 28.0027C11.883 29.3583 16.3376 29.7778 20.6458 28.4375Z" fill="#F8D26D"/>
<path d="M34.705 2.1875L6.01747 15.875C6.01747 15.875 2.48421 18.3125 2.48453 22.25M2.48453 22.25L2.48022 66.5C2.47983 72.6875 13.5191 73.625 16.8941 71.5625L36.3937 62.375M2.48453 22.25C2.54629 22.6495 2.66815 23.0449 2.84463 23.4324C3.68162 25.2701 5.7473 26.9297 8.45825 28.0027C11.883 29.3583 16.3376 29.7778 20.6458 28.4375L51.2083 14.75C59.6235 12.3657 68.2473 15.9614 69.3918 20.75M69.3918 20.75C69.6646 21.8913 69.5125 23.1004 68.8314 24.3125C68.5498 24.8135 68.1779 25.315 67.7083 25.8125L36.3937 41.375V85.8125C36.3937 85.8125 55.1351 76.3275 67.1437 70.25C68.8043 68.9495 69.1969 67.837 69.2062 65.375L69.3918 20.75Z" stroke="#2C1911" stroke-width="3" stroke-linecap="round" stroke-linejoin="round"/>
</svg>